HIERARCHY
ROOT hip
{
  OFFSET 2.52632 82.0174 56.7274
  CHANNELS 6 Xposition Yposition Zposition Zrotation Xrotation Yrotation
  JOINT abdomen
  {
    OFFSET 0 20.6881 -0.73152
    CHANNELS 3 Zrotation Xrotation Yrotation
    JOINT chest
    {
      OFFSET 0 11.7043 -0.48768
      CHANNELS 3 Zrotation Xrotation Yrotation
      JOINT neck
      {
        OFFSET 0 22.1894 -2.19456
        CHANNELS 3 Zrotation Xrotation Yrotation
        JOINT head
        {
          OFFSET -0.24384 7.07133 1.2192
          CHANNELS 3 Zrotation Xrotation Yrotation
          JOINT leftEye
          {
            OFFSET 4.14528 8.04674 8.04672
            CHANNELS 3 Zrotation Xrotation Yrotation
            End Site
            {
              OFFSET 1 0 0
            }
          }
          JOINT rightEye
          {
            OFFSET -3.6576 8.04674 8.04672
            CHANNELS 3 Zrotation Xrotation Yrotation
            End Site
            {
              OFFSET 1 0 0
            }
          }
        }
      }
      JOINT rCollar
      {
        OFFSET -2.68224 19.2634 -4.8768
        CHANNELS 3 Zrotation Xrotation Yrotation
        JOINT rShldr
        {
          OFFSET -8.77824 -1.95073 1.46304
          CHANNELS 3 Zrotation Xrotation Yrotation
          JOINT rForeArm
          {
            OFFSET -28.1742 -1.7115 0.48768
            CHANNELS 3 Zrotation Xrotation Yrotation
            JOINT rHand
            {
              OFFSET -22.5879 0.773209 7.07136
              CHANNELS 3 Zrotation Xrotation Yrotation
              JOINT rThumb1
              {
                OFFSET -1.2192 -0.487915 3.41376
                CHANNELS 3 Zrotation Xrotation Yrotation
                JOINT rThumb2
                {
                  OFFSET -3.37035 -0.52449 3.41376
                  CHANNELS 3 Zrotation Xrotation Yrotation
                  End Site
                  {
                    OFFSET -1.78271 -1.18214 1.43049
                  }
                }
              }
              JOINT rIndex1
              {
                OFFSET -7.75947 0.938293 5.60832
                CHANNELS 3 Zrotation Xrotation Yrotation
                JOINT rIndex2
                {
                  OFFSET -2.54057 -0.884171 1.56538
                  CHANNELS 3 Zrotation Xrotation Yrotation
                  End Site
                  {
                    OFFSET -1.62519 -0.234802 1.16502
                  }
                }
              }
              JOINT rMid1
              {
                OFFSET -8.24714 1.18213 3.41376
                CHANNELS 3 Zrotation Xrotation Yrotation
                JOINT rMid2
                {
                  OFFSET -3.10165 -0.590103 1.0647
                  CHANNELS 3 Zrotation Xrotation Yrotation
                  End Site
                  {
                    OFFSET -2.48547 -0.328903 0.83742
                  }
                }
              }
              JOINT rRing1
              {
                OFFSET -8.82822 0.546677 1.51678
                CHANNELS 3 Zrotation Xrotation Yrotation
                JOINT rRing2
                {
                  OFFSET -2.60934 -0.819778 -0.0198488
                  CHANNELS 3 Zrotation Xrotation Yrotation
                  End Site
                  {
                    OFFSET -2.33842 -0.294052 0.168128
                  }
                }
              }
              JOINT rPinky1
              {
                OFFSET -8.27202 -0.0477905 -0.4584
                CHANNELS 3 Zrotation Xrotation Yrotation
                JOINT rPinky2
                {
                  OFFSET -1.82734 -0.647385 -0.700984
                  CHANNELS 3 Zrotation Xrotation Yrotation
                  End Site
                  {
                    OFFSET -1.69225 -0.51767 -0.607171
                  }
                }
              }
            }
          }
        }
      }
      JOINT lCollar
      {
        OFFSET 2.68224 19.2634 -4.8768
        CHANNELS 3 Zrotation Xrotation Yrotation
        JOINT lShldr
        {
          OFFSET 8.77824 -1.95073 1.46304
          CHANNELS 3 Zrotation Xrotation Yrotation
          JOINT lForeArm
          {
            OFFSET 28.1742 -1.7115 0.48768
            CHANNELS 3 Zrotation Xrotation Yrotation
            JOINT lHand
            {
              OFFSET 22.5879 0.773209 7.07136
              CHANNELS 3 Zrotation Xrotation Yrotation
              JOINT lThumb1
              {
                OFFSET 1.2192 -0.487915 3.41376
                CHANNELS 3 Zrotation Xrotation Yrotation
                JOINT lThumb2
                {
                  OFFSET 3.37035 -0.52449 3.41376
                  CHANNELS 3 Zrotation Xrotation Yrotation
                  End Site
                  {
                    OFFSET 1.78271 -1.18214 1.43049
                  }
                }
              }
              JOINT lIndex1
              {
                OFFSET 7.75947 0.938293 5.60832
                CHANNELS 3 Zrotation Xrotation Yrotation
                JOINT lIndex2
                {
                  OFFSET 2.54057 -0.884171 1.56538
                  CHANNELS 3 Zrotation Xrotation Yrotation
                  End Site
                  {
                    OFFSET 1.62519 -0.234802 1.16502
                  }
                }
              }
              JOINT lMid1
              {
                OFFSET 8.24714 1.18213 3.41376
                CHANNELS 3 Zrotation Xrotation Yrotation
                JOINT lMid2
                {
                  OFFSET 3.10165 -0.590103 1.0647
                  CHANNELS 3 Zrotation Xrotation Yrotation
                  End Site
                  {
                    OFFSET 2.48547 -0.328903 0.83742
                  }
                }
              }
              JOINT lRing1
              {
                OFFSET 8.82822 0.546677 1.51678
                CHANNELS 3 Zrotation Xrotation Yrotation
                JOINT lRing2
                {
                  OFFSET 2.60934 -0.819778 -0.0198488
                  CHANNELS 3 Zrotation Xrotation Yrotation
                  End Site
                  {
                    OFFSET 2.33842 -0.294052 0.168128
                  }
                }
              }
              JOINT lPinky1
              {
                OFFSET 8.27202 -0.0477905 -0.4584
                CHANNELS 3 Zrotation Xrotation Yrotation
                JOINT lPinky2
                {
                  OFFSET 1.82734 -0.647385 -0.700984
                  CHANNELS 3 Zrotation Xrotation Yrotation
                  End Site
                  {
                    OFFSET 1.69225 -0.51767 -0.607171
                  }
                }
              }
            }
          }
        }
      }
    }
  }
  JOINT rButtock
  {
    OFFSET -8.77824 4.35084 1.2192
    CHANNELS 3 Zrotation Xrotation Yrotation
    JOINT rThigh
    {
      OFFSET 0 -1.70687 -2.19456
      CHANNELS 3 Zrotation Xrotation Yrotation
      JOINT rShin
      {
        OFFSET 0 -36.8199 0.73152
        CHANNELS 3 Zrotation Xrotation Yrotation
        JOINT rFoot
        {
          OFFSET 0.73152 -45.1104 -5.12064
          CHANNELS 3 Zrotation Xrotation Yrotation
          End Site
          {
            OFFSET -1.1221 -3.69964 12.103
          }
        }
      }
    }
  }
  JOINT lButtock
  {
    OFFSET 8.77824 4.35084 1.2192
    CHANNELS 3 Zrotation Xrotation Yrotation
    JOINT lThigh
    {
      OFFSET 0 -1.70687 -2.19456
      CHANNELS 3 Zrotation Xrotation Yrotation
      JOINT lShin
      {
        OFFSET 0 -36.8199 0.73152
        CHANNELS 3 Zrotation Xrotation Yrotation
        JOINT lFoot
        {
          OFFSET -0.73152 -45.1104 -5.12064
          CHANNELS 3 Zrotation Xrotation Yrotation
          End Site
          {
            OFFSET 1.1221 -3.69964 12.103
          }
        }
      }
    }
  }
}
MOTION
Frames:	4
Frame Time:	0.00833333
3.65977 82.4855 56.28 3.31389 0.0169046 -0.0637784 -4.35904 0.00629574 -0.117466 -1.20169 0.032483 -0.207699 4.95867e-014 7.95139e-016 1.09332e-015 1.50999e-013 9.54166e-015 3.22559e-015 -0 0 0 -0 0 0 2.48471e-014 -8.85213e-017 6.4605e-016 5.2854e-013 -2.41648e-015 1.41137e-014 9.05375e-012 -2.81141e-012 1.39944e-013 1.04217e-010 2.38904e-012 2.39178e-012 2.45731e-010 -9.06847e-013 5.48646e-012 4.24367e-010 -1.56483e-012 9.4709e-012 2.45736e-010 -9.05663e-013 5.47373e-012 7.73091 5.47488 0.417314 2.4573e-010 -9.07353e-013 5.49282e-012 2.90554 0.965183 0.102902 2.45736e-010 -9.06359e-013 5.48725e-012 10.2786 0.731801 0.0259123 2.45727e-010 -9.04868e-013 5.48964e-012 2.22167 -0.733487 -0.20892 2.46519e-014 -8.61918e-017 3.47873e-016 5.2613e-013 -2.29845e-015 1.23246e-014 9.14409e-012 2.65099e-012 1.36764e-013 1.04171e-010 -3.06866e-012 2.4204e-012 2.45821e-010 -8.99476e-013 5.49918e-012 4.24534e-010 -1.55211e-012 9.50032e-012 2.45815e-010 -8.96519e-013 5.51826e-012 -7.73091 5.47488 -0.417314 2.45821e-010 -8.99302e-013 5.50236e-012 -2.90554 0.965183 -0.102902 2.45818e-010 -8.99699e-013 5.50315e-012 -10.2786 0.731801 -0.0259123 2.45822e-010 -8.98507e-013 5.496e-012 -2.22167 -0.733487 0.20892 -2.03217e-016 0 -3.88251e-019 -2.892 -1.94436 0.0304788 -0.00794557 -2.07875 -0.0648536 -0.418458 4.00219 0.126554 2.03217e-016 0 3.88251e-019 -3.72532 -11.2507 0.483793 -0.014313 14.7726 -0.388797 0.544766 -3.54245 0.0125157 
1.54172 82.1115 53.9663 0.827987 2.72627 -0.307999 -2.17537 -2.761 0.598456 -2.28501 -2.7496 -0.170619 -2.01851 3.32291 -3.07183 4.40186 -2.63023 -5.6882 -0 0 0 -0 0 0 1.3374e-013 -3.95402e-015 -2.9313e-014 23.4068 -10.6168 -2.4068 -3.55428 -1.50193 5.66816 0.32664 12.738 1.63461 -5.29779e-010 3.74179e-010 -1.4548e-010 -9.17431e-010 6.55994e-010 -2.23496e-010 -5.29775e-010 3.7418e-010 -1.45493e-010 7.73091 5.47488 0.417314 -5.2978e-010 3.74179e-010 -1.45475e-010 2.90554 0.965183 0.102902 -5.29775e-010 3.74179e-010 -1.45477e-010 10.2786 0.731801 0.0259123 -5.29784e-010 3.74181e-010 -1.45474e-010 2.22167 -0.733487 -0.20892 1.33559e-013 -3.95049e-015 -2.95409e-014 -21.9715 -8.39239 2.79337 3.30946 -1.35919 -5.31538 -0.0687033 5.82012 -0.802803 -6.12744e-010 2.08729e-012 -5.24836e-010 -1.06672e-009 -2.59339e-012 -8.93219e-010 -6.12749e-010 2.09116e-012 -5.24819e-010 -7.73091 5.47488 -0.417314 -6.12744e-010 2.08851e-012 -5.24835e-010 -2.90554 0.965183 -0.102902 -6.12747e-010 2.08801e-012 -5.24834e-010 -10.2786 0.731801 -0.0259123 -6.12741e-010 2.08975e-012 -5.24842e-010 -2.22167 -0.733487 0.20892 -2.03217e-016 0 -3.88251e-019 -1.23798 -3.25699 7.18922 0.00490526 -1.89625 0.0328763 -0.870003 1.55176 -7.12068 2.03217e-016 0 3.88251e-019 -3.0874 -10.5526 -12.6079 -0.00709292 14.09 -0.245167 1.56452 -9.66624 14.7678 
1.53587 82.1163 53.9878 -1.77854 5.58345 -0.565873 0.217184 -5.66971 1.35464 -3.42511 -5.69384 -0.133479 -3.77687 6.82273 -6.36081 8.50322 -5.3645 -11.7502 -0 0 0 -0 0 0 2.55531e-013 -5.10978e-015 -6.30272e-014 47.1163 -21.7313 -5.23897 -6.99736 -3.04515 11.6841 -0.199824 26.1554 3.65314 -1.37118e-009 7.86147e-010 -3.37891e-010 -2.37433e-009 1.37906e-009 -5.25419e-010 -1.37118e-009 7.86149e-010 -3.37903e-010 7.73091 5.47488 0.417314 -1.37119e-009 7.86147e-010 -3.37888e-010 2.90554 0.965183 0.102902 -1.37118e-009 7.86147e-010 -3.37886e-010 10.2786 0.731801 0.0259123 -1.37119e-009 7.86149e-010 -3.37881e-010 2.22167 -0.733487 -0.20892 2.55362e-013 -5.10494e-015 -6.31794e-014 -44.2799 -17.1929 5.94569 6.53448 -2.75666 -10.943 0.0395352 11.9616 -1.67846 -1.5546e-009 6.3566e-012 -1.0823e-009 -2.70217e-009 -1.85546e-012 -1.8415e-009 -1.5546e-009 6.36151e-012 -1.08229e-009 -7.73091 5.47488 -0.417314 -1.55459e-009 6.35897e-012 -1.0823e-009 -2.90554 0.965183 -0.102902 -1.5546e-009 6.35832e-012 -1.0823e-009 -10.2786 0.731801 -0.0259123 -1.55459e-009 6.36064e-012 -1.08231e-009 -2.22167 -0.733487 0.20892 -2.03217e-016 0 -3.88251e-019 0.868891 -4.53551 14.7773 0.0178122 -1.7028 0.136085 -2.01387 -0.979758 -14.777 2.03217e-016 0 3.88251e-019 -2.05635 -9.27437 -26.3544 0.00436677 13.3673 -0.0949296 5.99047 -14.4986 31.008 
1.54242 82.1141 53.9888 -4.0739 8.14434 -0.803498 2.40119 -8.29079 2.04965 -4.44086 -8.3138 -0.0968885 -4.97816 9.85334 -9.33895 11.653 -7.57921 -17.2015 -0 0 0 -0 0 0 3.51527e-013 -1.1685e-014 -8.9231e-014 67.1578 -31.6052 -8.34076 -9.78373 -4.32971 17.0488 -1.69664 38.0721 6.08017 -2.0808e-009 1.12435e-009 -4.47412e-010 -3.60103e-009 1.97111e-009 -6.89428e-010 -2.0808e-009 1.12435e-009 -4.47425e-010 7.73091 5.47488 0.417314 -2.0808e-009 1.12435e-009 -4.47411e-010 2.90554 0.965183 0.102902 -2.0808e-009 1.12435e-009 -4.47406e-010 10.2786 0.731801 0.0259123 -2.08081e-009 1.12435e-009 -4.47401e-010 2.22167 -0.733487 -0.20892 3.51374e-013 -1.16791e-014 -8.93184e-014 -63.2557 -24.9252 9.14875 9.18118 -3.93741 -15.9804 0.303095 17.4463 -2.5116 -2.32987e-009 8.06081e-012 -1.58551e-009 -4.04922e-009 -4.67596e-012 -2.69866e-009 -2.32988e-009 8.06653e-012 -1.58549e-009 -7.73091 5.47488 -0.417314 -2.32987e-009 8.06414e-012 -1.58551e-009 -2.90554 0.965183 -0.102902 -2.32988e-009 8.06342e-012 -1.58551e-009 -10.2786 0.731801 -0.0259123 -2.32987e-009 8.06625e-012 -1.58552e-009 -2.22167 -0.733487 0.20892 -2.03217e-016 0 -3.88251e-019 3.02857 -5.54455 21.5777 0.0287385 -1.53124 0.228278 -3.59335 -3.07992 -21.6395 2.03217e-016 0 3.88251e-019 -0.747711 -7.78881 -38.5426 0.0178696 12.7247 0.039487 12.2422 -16.3468 45.9832 
